<svg xmlns="http://www.w3.org/2000/svg" viewBox="0 0 64 64" width="64" height="64">
  <!-- Base da impressora -->
  <rect x="8" y="40" width="48" height="16" rx="2" fill="#4a5568" stroke="#2d3748" stroke-width="1"/>
  
  <!-- Plataforma de impressão -->
  <rect x="12" y="44" width="40" height="4" rx="1" fill="#667eea" stroke="#5a67d8" stroke-width="0.5"/>
  
  <!-- Frame vertical esquerdo -->
  <rect x="10" y="12" width="4" height="32" fill="#718096" stroke="#4a5568" stroke-width="0.5"/>
  
  <!-- Frame vertical direito -->
  <rect x="50" y="12" width="4" height="32" fill="#718096" stroke="#4a5568" stroke-width="0.5"/>
  
  <!-- Frame horizontal superior -->
  <rect x="10" y="12" width="44" height="4" fill="#718096" stroke="#4a5568" stroke-width="0.5"/>
  
  <!-- Extrusor/cabeça de impressão -->
  <rect x="24" y="20" width="16" height="8" rx="2" fill="#e53e3e" stroke="#c53030" stroke-width="1"/>
  
  <!-- Bico do extrusor -->
  <circle cx="32" cy="32" r="2" fill="#2d3748"/>
  
  <!-- Peça sendo impressa -->
  <rect x="28" y="40" width="8" height="4" rx="1" fill="#38b2ac" stroke="#319795" stroke-width="0.5"/>
  
  <!-- LEDs/indicadores -->
  <circle cx="16" cy="52" r="1.5" fill="#48bb78"/>
  <circle cx="48" cy="52" r="1.5" fill="#ed8936"/>
  
  <!-- Detalhes do frame -->
  <line x1="14" y1="16" x2="50" y2="16" stroke="#a0aec0" stroke-width="0.5"/>
  <line x1="14" y1="36" x2="50" y2="36" stroke="#a0aec0" stroke-width="0.5"/>
  
  <!-- Fios/cabos -->
  <path d="M40 24 Q44 26 46 30" stroke="#4a5568" stroke-width="1.5" fill="none"/>
  <path d="M24 24 Q20 26 18 30" stroke="#4a5568" stroke-width="1.5" fill="none"/>
</svg>
